<svg xmlns="http://www.w3.org/2000/svg" viewBox="0 0 500 500" role="img" aria-label="Camber Robotics logo">
	<title>Camber Robotics</title>
	<path d="M100.4,369.05 C88.8,365.9 78.67,363.08 77.9,362.78 C77.13,362.47 72.32,354.97 67.21,346.1 L57.92,329.98 L83.17,236.74 C97.06,185.46 108.67,143.39 108.97,143.25 C109.27,143.11 116.68,138.4 125.44,132.79 L141.36,122.58 L156.43,126.48 C164.72,128.62 175.53,131.52 180.46,132.93 L189.41,135.5 L198.74,151.78 L208.06,168.06 L200.18,197.07 C193.26,222.57 192.5,226.19 193.9,226.93 C195.13,227.57 221.3,237.96 233.32,242.57 C234.83,243.15 235,242.16 235,233.11 L235,223 L249.97,223 L264.93,223 L265.22,232.91 L265.5,242.82 L285.5,234.94 C296.5,230.61 305.86,226.93 306.3,226.77 C306.74,226.6 303.49,213.27 299.09,197.14 L291.08,167.8 L299.49,153.15 C304.11,145.09 308.49,137.69 309.23,136.69 C310.14,135.45 317.52,133 332.53,128.94 C344.61,125.68 355.49,123 356.69,123 C358.41,123 373.65,132.1 389.35,142.5 C390.31,143.13 400.06,177.5 416.06,236.6 L441.27,329.71 L431.74,346.01 L422.2,362.32 L398.37,368.69 C385.27,372.19 374.07,374.93 373.48,374.78 C370.49,374 341.05,354.3 341.03,353.07 C341.01,352.28 335.72,332.14 329.27,308.32 L317.55,265 L291.27,265 L265,265 L265,274.5 L265,284 L250.04,284 L235.08,284 L234.79,274.75 L234.5,265.5 L208.07,265.5 L181.63,265.5 L169.5,310.29 L157.36,355.08 L141.93,365.02 C132.23,371.26 125.57,374.92 124,374.86 C122.62,374.81 112.01,372.19 100.4,369.05 Z M124.51,330.19 L170.4,300.38 L177.18,275.5 C180.91,261.82 183.8,250.47 183.6,250.27 C182.93,249.59 60.5,330.16 60.76,331.11 C61.3,333.07 77.32,360 77.96,360 C78.32,360 99.27,346.59 124.51,330.19 Z M430.4,345.1 C434.63,337.74 438.19,331.29 438.3,330.77 C438.47,329.99 315.93,248.98 315.28,249.45 C314.97,249.67 328.65,300 329.12,300.38 C333.84,304.22 421.54,359.83 422.01,359.28 C422.39,358.85 426.16,352.47 430.4,345.1 Z M233.79,253.87 C233.46,252.87 190.04,236.58 189.46,237.24 C189.06,237.69 185,252.97 185,254.01 C185,254.64 194.05,255 209.58,255 C227.42,255 234.06,254.69 233.79,253.87 Z M312.43,246.36 C311.13,241.61 309.92,237.58 309.75,237.41 C309.47,237.14 274.69,249.32 267.75,252.13 C266.24,252.74 265,253.64 265,254.12 C265,254.6 276.21,255 289.91,255 L314.81,255 L312.43,246.36 Z M149.75,203.24 C180.14,183.72 205,167.33 205,166.83 C205,165.83 190.36,140.03 189,138.63 C188.35,137.96 100.91,192.34 96.64,196.07 C95.79,196.81 83.06,242.32 83.02,244.78 C83.01,245.54 85.35,244.56 88.75,242.4 C91.91,240.38 119.36,222.76 149.75,203.24 Z M415.01,239.25 C413.99,235.54 411.05,224.62 408.49,215 C405.92,205.38 403.3,196.96 402.66,196.29 C402.02,195.63 381.04,182.06 356.04,166.15 L310.57,137.21 L302.29,151.55 C297.73,159.44 294,166.26 294,166.7 C294,167.15 295.91,168.69 298.25,170.12 C300.59,171.56 328.15,189.22 359.5,209.36 C390.85,229.51 416.58,245.99 416.69,246 C416.79,246 416.04,242.96 415.01,239.25 Z" fill="#000000"/>
</svg>
