<svg xmlns="http://www.w3.org/2000/svg" width="511.15" height="139.959" viewBox="0 0 511.15 139.959"><defs><style>.a{fill:#222;}.b,.c{fill:#e1261c;}.c{font-size:10px;font-family:ArialMT, Arial;}</style></defs><path class="a" d="M1021.081,885.781a4.857,4.857,0,0,0-4.658-2.642c-2.092-.041-3.412.7-3.412,1.8,0,3.23,11.7.476,11.7,7.486,0,4.484-4,6.5-8.255,6.5-4.366,0-7.337-1.508-8.988-3.378l3.375-2.606c1.027,1.5,2.972,2.314,5.356,2.314,2.129,0,3.6-1.176,3.6-2.167,0-3.161-11.483-.549-11.483-7.6,0-4.19,3.632-6.023,8.217-6.023a9.505,9.505,0,0,1,7.667,3.374Z" transform="translate(-782.135 -758.967)"></path><path class="a" d="M1087.78,895.365a5.38,5.38,0,0,0,.7,3.124h-4.735a3.519,3.519,0,0,1-.439-1.691,9.352,9.352,0,0,1-6.052,2.128c-3.522,0-6.311-2.24-6.311-5.836,0-3.638,2.9-5.256,5.65-5.805l1.87-.366a47.069,47.069,0,0,0,4.843-1.1v-.554c0-1.838-1.578-2.35-3.521-2.35-2.605,0-3.449.771-3.449,2.791l-4.475-.187c0-4.373,3.851-6.056,7.924-6.056,4,0,8,.8,8,6.091Zm-4.477-6.17a8.33,8.33,0,0,1-2.128.665l-2.456.513c-1.689.329-3.081.805-3.081,2.569,0,1.393,1.282,2.314,2.9,2.314,2.092,0,4.769-1.03,4.769-3.417Z" transform="translate(-825.831 -758.967)"></path><path class="a" d="M1141.945,879.9h4.476v1.841h.072a6.445,6.445,0,0,1,5.064-2.278c4.4,0,6.383,2.24,6.383,6.315v12.709h-4.474V887.137c0-1.683-.771-3.339-3.083-3.339-2.165,0-3.961,1.469-3.961,4.882v9.809h-4.476Z" transform="translate(-874.716 -758.967)"></path><path class="a" d="M1248.631,895.365a5.367,5.367,0,0,0,.7,3.124H1244.6a3.475,3.475,0,0,1-.44-1.691,9.364,9.364,0,0,1-6.056,2.128c-3.52,0-6.308-2.24-6.308-5.836,0-3.638,2.9-5.256,5.649-5.805l1.871-.366a47.5,47.5,0,0,0,4.844-1.1v-.554c0-1.838-1.58-2.35-3.521-2.35-2.607,0-3.451.771-3.451,2.791l-4.475-.187c0-4.373,3.852-6.056,7.927-6.056,4,0,7.995.8,7.995,6.091Zm-4.474-6.17a8.355,8.355,0,0,1-2.131.665l-2.456.513c-1.69.329-3.082.805-3.082,2.569,0,1.393,1.285,2.314,2.9,2.314,2.09,0,4.77-1.03,4.77-3.417Z" transform="translate(-936.573 -758.967)"></path><path class="a" d="M1302.795,879.9h4.475v1.841h.077a6.434,6.434,0,0,1,5.059-2.278c4.4,0,6.381,2.24,6.381,6.315v12.709h-4.473V887.137c0-1.683-.77-3.339-3.083-3.339-2.163,0-3.963,1.469-3.963,4.882v9.809h-4.475Z" transform="translate(-985.455 -758.967)"></path><path class="a" d="M1368.034,859.8h4.475v6.571h4v3.236h-4v9.4c0,1.464.3,2.275,2.02,2.275.622,0,1.322-.152,1.98-.222v3.672a16.35,16.35,0,0,1-3.559.442c-3.669,0-4.917-1.656-4.917-4.481V869.606h-2.716V866.37h2.716Z" transform="translate(-1028.501 -745.434)"></path><path class="a" d="M1427.664,889.195c0,5.547-3.485,9.732-9.5,9.732s-9.5-4.185-9.5-9.732,3.485-9.729,9.5-9.729S1427.664,883.651,1427.664,889.195Zm-14.309,0c0,2.9,1.612,5.622,4.805,5.622s4.806-2.72,4.806-5.622-1.615-5.615-4.806-5.615S1413.356,886.293,1413.356,889.195Z" transform="translate(-1058.341 -758.967)"></path><path class="a" d="M1483.545,879.9h4.475v1.841h.073a6.443,6.443,0,0,1,5.063-2.278c4.4,0,6.383,2.24,6.383,6.315v12.709h-4.473V887.137c0-1.683-.772-3.339-3.082-3.339-2.167,0-3.964,1.469-3.964,4.882v9.809h-4.475Z" transform="translate(-1109.896 -758.967)"></path><path class="a" d="M1552.552,856.617h4.473v4.555h-4.473Zm0,7.563h4.473v18.586h-4.473Z" transform="translate(-1157.405 -743.244)"></path><path class="a" d="M1599.809,889.195c0,5.547-3.485,9.732-9.5,9.732s-9.5-4.185-9.5-9.732,3.486-9.729,9.5-9.729S1599.809,883.651,1599.809,889.195Zm-14.307,0c0,2.9,1.614,5.622,4.805,5.622s4.805-2.72,4.805-5.622-1.617-5.615-4.805-5.615S1585.5,886.293,1585.5,889.195Z" transform="translate(-1176.855 -758.967)"></path><g transform="translate(0.706)"><path class="b" d="M357.122,642.43c0,8.017,1.848,11.41,2.928,13.106H340.176a14.787,14.787,0,0,1-1.846-7.093,39.324,39.324,0,0,1-25.411,8.941c-14.788,0-26.5-9.4-26.5-24.516,0-15.266,12.172-22.05,23.721-24.364L318,606.963c6.777-1.386,15.557-2.931,20.332-4.63v-2.309c0-7.709-6.624-9.868-14.788-9.868-10.935,0-14.479,3.236-14.479,11.72l-18.788-.769c0-18.351,16.172-25.445,33.267-25.445,16.79,0,33.579,3.389,33.579,25.6ZM338.33,616.522a33.859,33.859,0,0,1-8.933,2.78l-10.319,2.152c-7.085,1.39-12.94,3.4-12.94,10.8,0,5.857,5.391,9.712,12.167,9.712,8.78,0,20.024-4.316,20.024-14.34Z" transform="translate(-286.421 -549.911)"></path><path class="b" d="M551.34,577.514h18.792v10.8h.306c4.468-8.951,13.094-12.649,24.029-12.649v19.121c-12.783,0-24.336,6.012-24.336,22.975v37.78H551.34Z" transform="translate(-468.809 -549.911)"></path><path class="b" d="M726.79,493.1h18.79v27.6h16.789v13.566H745.58v39.474c0,6.167,1.235,9.56,8.474,9.56a80.073,80.073,0,0,0,8.315-.923V597.8a69.36,69.36,0,0,1-14.938,1.848c-15.4,0-20.641-6.935-20.641-18.81V534.267h-11.4V520.7h11.4Z" transform="translate(-581.755 -493.098)"></path><path class="b" d="M898.323,577.514h18.792v6.627h.308a31.6,31.6,0,0,1,22.179-8.481c19.717,0,33.575,18.353,33.575,40.861s-13.859,40.863-33.884,40.863c-11.243,0-17.252-3.858-22.179-9.4v32.535H898.323Zm55.141,39.007c-.151-11.258-4.312-23.59-18.484-23.59s-18.328,12.331-18.482,23.59c.154,11.255,4.314,23.593,18.482,23.593S953.312,627.777,953.464,616.522Z" transform="translate(-707.696 -549.911)"></path><path class="b" d="M1230.073,642.43c0,8.017,1.845,11.41,2.924,13.106h-19.867a14.75,14.75,0,0,1-1.851-7.093,39.333,39.333,0,0,1-25.414,8.941c-14.785,0-26.493-9.4-26.493-24.516,0-15.266,12.168-22.05,23.721-24.364l7.855-1.541c6.778-1.386,15.554-2.931,20.331-4.63v-2.309c0-7.709-6.624-9.868-14.786-9.868-10.941,0-14.479,3.236-14.479,11.72l-18.791-.769c0-18.351,16.171-25.445,33.271-25.445,16.791,0,33.58,3.389,33.58,25.6Zm-18.794-25.908a33.851,33.851,0,0,1-8.934,2.78l-10.317,2.152c-7.088,1.39-12.937,3.4-12.937,10.8,0,5.857,5.39,9.712,12.163,9.712,8.785,0,20.025-4.316,20.025-14.34Z" transform="translate(-887.42 -549.911)"></path><path class="b" d="M1473.524,605.422c-2.464-7.714-9.091-12.49-16.484-12.49-13.4,0-20.178,11.41-20.178,23.59s6.01,23.593,19.1,23.593c11.245,0,16.019-8.015,18.948-15.111l16.017,8.48c-5.236,11.412-14.17,23.9-35.27,23.9-23.874,0-38.505-17.578-38.505-40.863s14.631-40.861,39.89-40.861c18.949,0,28.185,10.483,32.963,22.2Z" transform="translate(-1064.892 -549.911)"></path><path class="b" d="M1693.458,621c.31,11.562,10.013,19.119,20.181,19.119,14.787,0,20.637-8.482,22.481-11.1l15.871,9.248c-5.853,8.945-17.1,19.121-38.352,19.121-25.26,0-39.9-17.578-39.9-40.863s14.636-40.861,39.9-40.861c26.027,0,37.429,17.426,37.429,45.335Zm37.89-14.5c0-4.165-5.08-15.418-17.709-15.418-10.934,0-18.18,7.094-20.181,15.418Z" transform="translate(-1241.547 -549.911)"></path></g><text class="c" transform="translate(0 3.499)"></text></svg>